# xmcd CD database file
# Copyright (C) 1995-1998 Ti Kan
#
# Track frame offsets:
#	150
#	13203
#	23277
#	33567
#	45706
#	57634
#	65459
#	78181
#	89515
#	99494
#
# Disc length: 1484 seconds
#
# Revision: 1
# Processed by: cddbd v1.4b42PL0 Copyright (c) Steve Scherf et al.
# Submitted via: CDex 1.30Release
#
DISCID=7905ca0a
DTITLE=Johnny Cash - The Greatest Hits Of Johnny Cash - Disc 1
DYEAR=1900
DGENRE=Country
TTITLE0=Folsom Prison Blues
TTITLE1=Ballad Of A Teenage Queen
TTITLE2=The Ways Of A Woman In Love
TTITLE3=You're The Nearest Thing To Heaven
TTITLE4=So Doggone Lonesome
TTITLE5=Come In Stranger
TTITLE6=Next In Line
TTITLE7=Oh Lonesome Me
TTITLE8=Rock Island Line
TTITLE9=Thanks A Lot
EXTD=ID3G:   2
EXTT0=
EXTT1=
EXTT2=
EXTT3=
EXTT4=
EXTT5=
EXTT6=
EXTT7=
EXTT8=
EXTT9=
PLAYORDER=
